/* XPM */
static char *_70845124dc84601a2d211a2f0757ec9V5Zdu5xXLcw1RsLA[] = {
/* columns rows colors chars-per-pixel */
"50 50 253 2 ",
"   c #040404",
".  c #0C0305",
"X  c #0A0A03",
"o  c #060509",
"O  c #0A040A",
"+  c #060909",
"@  c #120104",
"#  c #1A0203",
"$  c #13040A",
"%  c #170A07",
"&  c #0B0913",
"*  c #140412",
"=  c #140A12",
"-  c #190819",
";  c #191616",
":  c #12130B",
">  c #2A0104",
",  c #240B0D",
"<  c #270507",
"1  c #380709",
"2  c #270917",
"3  c #340C17",
"4  c #261419",
"5  c #351516",
"6  c #39140E",
"7  c #190D25",
"8  c #0D1125",
"9  c #121127",
"0  c #15112B",
"q  c #1C142C",
"w  c #1A1325",
"e  c #1B0D31",
"r  c #171333",
"t  c #1A1434",
"y  c #1B1935",
"u  c #1D1A3A",
"i  c #1C163A",
"p  c #2D0D2A",
"a  c #260C28",
"s  c #330D27",
"d  c #231224",
"f  c #23142C",
"g  c #2B132D",
"h  c #2B1A2E",
"j  c #261927",
"k  c #32142D",
"l  c #3B1529",
"z  c #241633",
"x  c #2D1532",
"c  c #241934",
"v  c #2C1B33",
"b  c #231A3A",
"n  c #2A163B",
"m  c #331533",
"M  c #3B1634",
"N  c #331B34",
"B  c #3B1B34",
"V  c #34143B",
"C  c #3B163B",
"Z  c #351A3A",
"A  c #3B1C3B",
"S  c #2D0D35",
"D  c #1C213C",
"F  c #292323",
"G  c #3D213B",
"H  c #342238",
"J  c #33262D",
"K  c #33201A",
"L  c #480A0B",
"P  c #451418",
"I  c #551717",
"U  c #560C0F",
"Y  c #641C1A",
"T  c #741C17",
"R  c #6A211C",
"E  c #7B2618",
"W  c #491625",
"Q  c #591725",
"!  c #431936",
"~  c #4C1936",
"^  c #431C3B",
"/  c #4B1B3B",
"(  c #451537",
")  c #521C3C",
"_  c #5B1C3D",
"`  c #561836",
"'  c #651729",
"]  c #641C3C",
"[  c #681A39",
"{  c #771A3A",
"}  c #7D192C",
"|  c #472829",
" . c #44233C",
".. c #4A223C",
"X. c #462439",
"o. c #52223D",
"O. c #5B2339",
"+. c #562528",
"@. c #652426",
"#. c #782924",
"$. c #68233D",
"%. c #762538",
"&. c #77353F",
"*. c #341B44",
"=. c #3D1C44",
"-. c #3C1E4A",
";. c #361A46",
":. c #3C2143",
">. c #3C234B",
",. c #3A2947",
"<. c #3D294E",
"1. c #4B1D41",
"2. c #471C46",
"3. c #531D42",
"4. c #5C1E43",
"5. c #5E1D48",
"6. c #631D43",
"7. c #6B1C42",
"8. c #6A1B48",
"9. c #731E43",
"0. c #7C1A46",
"q. c #432343",
"w. c #4D2443",
"e. c #44234C",
"r. c #4B244D",
"t. c #4C294C",
"y. c #472A46",
"u. c #542444",
"i. c #5C2444",
"p. c #53244C",
"a. c #532B4B",
"s. c #5C2A4B",
"d. c #562848",
"f. c #47314D",
"g. c #5B314C",
"h. c #4A2951",
"j. c #5C2C51",
"k. c #552851",
"l. c #593355",
"z. c #4D3656",
"x. c #632344",
"c. c #6C2345",
"v. c #63254B",
"b. c #6B2449",
"n. c #642A4B",
"m. c #6C294B",
"M. c #662944",
"N. c #752444",
"B. c #7B2344",
"V. c #74254A",
"C. c #7B254C",
"Z. c #752B4C",
"A. c #7B2B4C",
"S. c #782B45",
"D. c #79334B",
"F. c #6C2C51",
"G. c #652B52",
"H. c #752C51",
"J. c #7C2C51",
"K. c #6B3252",
"L. c #693558",
"P. c #7D3254",
"I. c #773558",
"U. c #613649",
"Y. c #77435C",
"T. c #724066",
"R. c #8B1D39",
"E. c #93382A",
"W. c #8F2E34",
"Q. c #A42934",
"!. c #931E24",
"~. c #E33739",
"^. c #A9463A",
"/. c #B54A38",
"(. c #E5453A",
"). c #871B45",
"_. c #911E47",
"`. c #832B4C",
"'. c #88274A",
"]. c #94284B",
"[. c #88354B",
"{. c #96374B",
"}. c #832D53",
"|. c #8D2D53",
" X c #8A2A54",
".X c #9A2D54",
"XX c #962D53",
"oX c #8A3355",
"OX c #8D345A",
"+X c #8D395B",
"@X c #853856",
"#X c #933354",
"$X c #94355B",
"%X c #9C355B",
"&X c #943A5B",
"*X c #9B3B5C",
"=X c #9A3653",
"-X c #A5374A",
";X c #A73758",
":X c #B43B58",
">X c #AF2F4A",
",X c #873A62",
"<X c #993A64",
"1X c #A73B65",
"2X c #B63964",
"3X c #C13F67",
"4X c #8A454B",
"5X c #9A4B44",
"6X c #9A445B",
"7X c #924B58",
"8X c #A7465A",
"9X c #B6485A",
"0X c #B3565A",
"qX c #AA4F53",
"wX c #994565",
"eX c #9A5568",
"rX c #8E4161",
"tX c #A84668",
"yX c #B74966",
"uX c #B85665",
"iX c #BE4E74",
"pX c #B2506F",
"aX c #B8636B",
"sX c #B46873",
"dX c #B5655A",
"fX c #C74E5A",
"gX c #C9545B",
"hX c #D55758",
"jX c #CA4C4A",
"kX c #E74646",
"lX c #E9525D",
"zX c #F0554C",
"xX c #CA6758",
"cX c #D56A5A",
"vX c #E66C5B",
"bX c #E66B57",
"nX c #C84966",
"mX c #C85865",
"MX c #D55B67",
"NX c #C45377",
"BX c #E65A63",
"VX c #C4636C",
"CX c #C66768",
"ZX c #D76868",
"AX c #D6716B",
"SX c #CF6E73",
"DX c #E67A77",
"FX c #F06B6A",
"GX c #EB837B",
"HX c #E7866B",
"JX c #FFB698",
"KX c #EB8380",
"LX c #FFD4B3",
/* pixels */
"p 2 - 7 t 8 7 c v g p m B k d - w - g m a h H h a m ^ C M a H z 0 z x V V g q 8 8 9 0 f z t e z 0 0 ",
"k p - - 7 q 0 c f m A ^ G k d - - 7 m G m p j f k p ^ w. .m v v 0 z x V M g q 9 8 9 0 t b t e e e 0 ",
"/  .N w w q q f f m A B N J j 7 - 7 v y.y.g a g Z p ! u... .g v q z g V V a f 0 0 9 0 z i t r i r r ",
"^ w.y.v j q q f x g p k B G B h j f g  .y.N g g G B / u./ w.m j z z a N Z x z f w 9 r u u r t r r r ",
"l B B N v j f z m p p M A G N H Z Z m k M m h N A w./ K.s.u.^ h N x x Z A N Z x f 7 y u y r i r y r ",
"! l s k H h j m m k ^ w...M k N Z H C m p M q.y.^ / / I.H.) / B m B x N Z Z A Z S 0 y D r r u i r r ",
"o.~ l M l k k B M ~ u.d.w.! M A Z A ^ ^ M 1.l.a.^ / 4.m.H._ o.~ !  .N m N Z 2.( V e t D r r u u i y ",
"~ ) / ! l s M / u.u.u.u.o.u.u.d.^ M ^ 1.3.s.j.w.u.) m.6.c.m.i.) ) d. .H Z G 3.2.M 7 y D r r *.i i t ",
"i.o.~ / ) o./ ) i.` 4._ v.I.L.L.d.( 3.s.L.G.~ ~ ) I.H.8.V.,Xb._ ` i.s. .H y.1.3.m x u r z z b y t r ",
"o./ ~ ) ) ) i.x.` _ x.6.6.m.m.m.i.i.m.6.b.n.) ~ n.,X}.0.9.J.c._ ] x.g.a. . .) 3.( x c e V V n b u z ",
"( ~ ~ ) i.x.m.I.] _ b.V.b.b.7.8.b.I.@Xb.6.b.x.` _ 7.C.OXC.}.P.H.c.] M.s. .w.4.4.2.C x x 2.( Z b n b ",
"! / / ) 4.O.c.H.V.] 7.C.V.9.7.7.C.}.+X`.9.V.V.x.[ [ }.<X<X$XJ.J.}.N.m.x.X.d.v.4.u.:.V ^ G.3.C v x *.",
"C ^ / ..) ` _ ] Z.] c.A.N.9.C.N.V.B. XoX`.C.A.N.V.J.'.<X<X<X8.C.wX}.P.x./ s.v.) u.G N p.,X8.2.m Z =.",
"N m ^ / ) _ _ $.c.A.P.@X9.C.$X`.).{ ).%X=XoX@XN.C. X0.).%X<XC.}.<X$XOXc.o.s.b.4.w. .B n.<X0.( m :.e.",
"x x N ! o.i.x.c.] S.@X+XB.0.$X|.'.].]..XXX=X&XB.`.&X X_. X$XC.9. X|.#XZ.i.s.i.x.w...! K.tX).) X.t.r.",
"A m m M ^ ) o.4.x.` c.+XA.[ `.`.6X;X].].)..XwX[ C.*X1X1X].1XXX9.'. X$X}.M.` ` x.i.u.~ H.1X)._ w.t.G ",
"g.^ s M ^ ( 2.3.3.G.I.I.H.7.7.C.&X*X%X_._.].oXA.A.#X.X2X3X2X>X).{ <X1X X7.6.$.[ P.Z._ C.1X).8.j.q.;.",
"d.d.u.B m C 2.;.2.j.I.H.H.b.x.b.A.A.'.XX1X1X<X`.R.#X;X3XnX3X8X'.oXtX2X;X'.` ] { `.A.[ N.1X).V.n.r.2.",
"( r.t.q.C =.;.;.2.k.j.G.G.G.8.G.v.6.] C.<XtX1X%X{ .XyX1X<X<X$X&X'.%X>X2X].%.|.S.S.V.Z.Z.1XXXoXP.s.w.",
"C C >.e.e.>.;.;.2.r.r.5.k.k.k.j.p.2.( 6.C.OXtXiX1X;X$X X}.wX,XI.,XiX3XNXtX=X1XB.%.$.D.A.%X.XXX+Xv.u.",
"-.*.S ;.-.-.;.>.;.2.;.2.r.r.r.h.k.e.=.w.i.c.oXtXiX$XA._ G.T.G.j.b.+XtXiXpXtXNXpX.XR.'.R.;X].'.D.m.5.",
"*.*.;.;.;.;.-.>.-.-.;.;.-.>.-.e.l.h.,.,.w.i.P.<XtX+XK.w.q.e.r.k.3.b.<X<X@XV.<XyXiX;X].].:X>XR.'.b.6.",
";.-.<.>.-.-.-.-.e.e.2.2.>.>.,.<.h.h.<.,.,.a.L.rXY.K.y.y.f.e.h.p.r.j.I.I.v.4.[ *XiXiX9X9XfXQ.Q.].{ _ ",
"h.e.e.>.e.e.h.h.2.r.h.e.f.<.,.<.h.z.<.H d d j 3 2 a - j w 7 A e.h.h.L.s.a.s._ A.*XiXuXnXnX!.Q.].{ ' ",
"h.k.a.z.j.s.j.j.s.g.a.z.f.z.,.c v 4 = = = * $ $ * * * & & * * - q t y.q.l.L.I.V.[.=XtXuXfX>X>XR.} ' ",
"G.G.G.K.K.K.I.K.K.K.L.Y.y.J 9 & = % = = = $ * 4 , - $ $ $ % % * & + * - X.g.I.rXoX[.[.tX3XfXnX:XW.%.",
"I.I.@XrX@X4X4X@X7XI.rXU., * * & X X @ % $ 2 < , , 2 2 5 , , % : : + = . , 2 ` wX6X&X{.8XyXnXnX:XR.R.",
"<X<X6X6X6X6X6X8XeX7XeX+.@ $ = ; ; : % # < 1 6 6 L P P 1 6 < % % % : : % $ # W tXwXtXtXtX8X;XyXyX>XQ.",
"8X8X8XtXuX9XuX0XuXaXeXP < 4 ; ; ; F K K 6 L Y I @.R R I 6 6 6 K J 5 4 ; ; @ , K.eXeXuXuXmXMXMXBXlX~.",
"9X9X0XgXmXmXmXmXVXVX[.1 1 4 ; w ; F | +.I Y E E.E.E.E.#.R +.| | 3 , % ; 4 , < +.sXaXuXuXDXDXBXlX~.~.",
"nXnXnXmXmXMXMXZXZXaXW.Q W % 4 F 4 j 5 +.R E.E.^././.^.W.#.@.| 5 4 ; ; j ; < 1 @.sXCXCXCXDXFXkXkXkX~.",
"0XfXmXmXMXMXMXZXCXCXsXsX4X1 6 3 l l P I U E /.cXHXHXcX^.#.' I P 3 , , 3 1 P %.dXCXCXAXcXbXvXzXzXzXzX",
"fXfXmXmXZXSXZXSXMXmXCXCXCX0X5X4XrXS.@.I U E jXvXLXLXcX^.!.T U @.5X5X5XdXCXAXAXAXcXvXvXvXvXbXzX(.(.~.",
"uX0XuXuXuXVXVXVXaXuXuXVXVXVXVXmXSXVXsXqX5X^.bXFXJXJXGXcXjXxXcXHXDXDXGXKXGXGXGXAXDXAXAXZXvXhXjXjX/.jX",
"~ ~ ~ O.O.$.$.] $.N.N.`.'.|.#X;X-X-X-XqXdXxXFXFXxXxXFXFXhXjXhXfX9XtX8X8X;X&X#X[.`.S.S.%.$.' @.Q Q Q ",
"k m m l B ! / ) x.c.V.J.}. XOXXX:X>X>X9XqXjXzXlX^.^.vXFXlXhX>X:X;X;X.X|.|.}.J.m.i.4.) / / ^ C C M m ",
"J h v J B  .X.o.O.x.S.P.oXoX&X*X;X:X:X8X9XfXlXFX^.E.MXBXMXhXhXnX9X2X;X*X&XoXP.H.v.d.w.q.:.H *.Z m m ",
"j h h m N G  ./ o.O.M.Z.D.oXoX*X;X;X;X-X{.qXfXhXW.T gXBXfXnXmX>X9X;X=X{.oX[.Z.m.s.a.r.G :.*.*.H v m ",
"x V V C B ^ ^ 1.u.i.i.m.H.H.P.oX#X=X{.{.5X8X-X-X#.Y qXfX9X9XyXqX{.{.[.`.`.S.Z.M.o.3.w.2.=.Z Z Z v m ",
"S V V C V C A ^ 1.1.u.s.G.G.K.Z.[.@XD.$.I U U L 1 1 L U U } %.[.4X[.S.S.M.M.i.u./ ^ ^ C Z V V z g z ",
"S S n n n V Z Z Z :.q.t.t.a.t.o.o.W 3 < # < > < % % < > > > > < 3 W X.u.d.w...w. .A Z N x x x x f q ",
"z z c c c t z c v v H N H N k j 2 * @ @ @ @ # # : X @ # # # # # $ $ 2 2 d j d a j f d 7 d d d w d w ",
"& & & + & + X o o . O . % @ @ @ @ @ . @ . % # @ @ @ @ # @ # # @ @ . . O o . o O O o o       . o + + ",
"+ +                 . . . . @ @ $ $ $ @ . . . . . X @ . @ . @ . $ $ . . . o o                       ",
"  +   + X     . . . . . @ # # @ . . . . . . . $ . . X . o . . . $ $ . O O O O o o o o o         o O ",
"                  . . o . . . . .   X O . . . . @ . . . o   X   . o O . O   o o                     ",
". . X     o           o o O O O o . O $ $ @ . . @ @ . X   X o   X X o .           o o             + ",
"  .     o           o       o   o . . . . @ @ $ @ @ . . . . o                 o                     ",
"                            o   o . . . . @ . O @ @ . . o                                           ",
"                              . .   . . . O . @ O . . o .                                           "
};
